<svg width="320" height="320" viewBox="0 0 320 320" fill="none" xmlns="http://www.w3.org/2000/svg">
<rect x="180" y="150" width="60" height="30" fill="#254EFB"/>
<rect x="90" y="150" width="60" height="30" fill="#254EFB"/>
<rect x="90" y="170" width="60" height="40" fill="#26B1F3"/>
<rect x="180" y="170" width="60" height="40" fill="#26B1F3"/>
<rect x="190" y="160" width="40" height="10" fill="#1F1D29"/>
<rect x="100" y="160" width="40" height="10" fill="#1F1D29"/>
<rect x="180" y="170" width="10" height="10" fill="#1F1D29"/>
<rect x="90" y="170" width="10" height="10" fill="#1F1D29"/>
<rect x="230" y="170" width="10" height="10" fill="#1F1D29"/>
<rect x="140" y="170" width="10" height="10" fill="#1F1D29"/>
<rect x="100" y="150" width="10" height="10" fill="#254EFB"/>
<rect x="200" y="150" width="10" height="10" fill="#254EFB"/>
<rect x="200" y="170" width="10" height="40" fill="#26B1F3"/>
<rect x="150" y="90" width="10" height="10" fill="#7CC4F2"/>
<rect x="140" y="80" width="10" height="10" fill="#7CC4F2"/>
<rect x="130" y="70" width="10" height="10" fill="#2B83F6"/>
<rect x="140" y="60" width="10" height="10" fill="#2B83F6"/>
<rect x="150" y="60" width="10" height="10" fill="#7CC4F2"/>
<rect x="150" y="100" width="10" height="10" fill="#2B83F6"/>
<rect x="140" y="90" width="10" height="10" fill="#2B83F6"/>
<rect x="130" y="80" width="10" height="10" fill="#2B83F6"/>
<rect x="120" y="80" width="10" height="10" fill="#2B83F6"/>
<rect x="110" y="90" width="10" height="10" fill="#2B83F6"/>
<rect x="110" y="100" width="10" height="10" fill="#7CC4F2"/>
</svg>
