<svg width="320" height="320" viewBox="0 0 320 320" fill="none" xmlns="http://www.w3.org/2000/svg">
<rect x="180" y="150" width="60" height="30" fill="#FF1A0B"/>
<rect x="90" y="150" width="60" height="30" fill="#FF1A0B"/>
<rect x="90" y="170" width="60" height="40" fill="#FF1A0B"/>
<rect x="180" y="170" width="60" height="40" fill="#FF1A0B"/>
<rect x="190" y="160" width="40" height="10" fill="#D22209"/>
<rect x="100" y="160" width="40" height="10" fill="#D22209"/>
<rect x="180" y="170" width="10" height="10" fill="#D22209"/>
<rect x="90" y="170" width="10" height="10" fill="#D22209"/>
<rect x="90" y="180" width="10" height="10" fill="#EAB118"/>
<rect x="220" y="180" width="10" height="10" fill="#EAB118"/>
<rect x="100" y="190" width="10" height="20" fill="#EAB118"/>
<rect x="210" y="190" width="10" height="20" fill="#EAB118"/>
<rect x="140" y="150" width="10" height="20" fill="#EAB118"/>
<rect x="140" y="180" width="10" height="30" fill="#EAB118"/>
<rect x="230" y="150" width="10" height="30" fill="#EAB118"/>
<rect x="230" y="170" width="10" height="10" fill="#D22209"/>
<rect x="140" y="170" width="10" height="10" fill="#D22209"/>
<rect x="100" y="150" width="10" height="10" fill="#FF1A0B"/>
</svg>
