<svg width="320" height="320" viewBox="0 0 320 320" fill="none" xmlns="http://www.w3.org/2000/svg">
<rect width="50" height="10" transform="matrix(-1 0 0 1 240 160)" fill="#F78A18"/>
<rect width="60" height="10" transform="matrix(-1 0 0 1 240 150)" fill="#F78A18"/>
<rect width="30" height="10" transform="matrix(-1 0 0 1 240 170)" fill="#F78A18"/>
<rect width="10" height="10" transform="matrix(-1 0 0 1 240 180)" fill="#F78A18"/>
<rect x="90" y="160" width="50" height="10" fill="#F78A18"/>
<rect x="90" y="150" width="60" height="10" fill="#F78A18"/>
<rect x="90" y="170" width="30" height="10" fill="#F78A18"/>
<rect x="90" y="180" width="10" height="10" fill="#F78A18"/>
<rect x="120" y="150" width="20" height="10" fill="#D9391F"/>
<rect x="180" y="150" width="20" height="10" fill="#D9391F"/>
<rect x="230" y="150" width="10" height="10" fill="#FFE939"/>
<rect x="120" y="160" width="20" height="10" fill="#D9391F"/>
<rect x="190" y="160" width="10" height="10" fill="#D9391F"/>
<rect x="230" y="160" width="10" height="10" fill="#FFE939"/>
<rect x="230" y="170" width="10" height="10" fill="#FFE939"/>
<rect x="230" y="180" width="10" height="10" fill="#FFE939"/>
</svg>
