<svg width="320" height="320" viewBox="0 0 320 320" fill="none" xmlns="http://www.w3.org/2000/svg">
<rect x="90" y="150" width="60" height="30" fill="#FFEF16"/>
<rect x="90" y="180" width="60" height="30" fill="#FFEF16"/>
<rect x="180" y="150" width="60" height="30" fill="#FF1AD2"/>
<rect x="180" y="180" width="60" height="30" fill="#FF1AD2"/>
<rect x="130" y="150" width="20" height="10" fill="white"/>
<rect x="130" y="200" width="20" height="10" fill="white"/>
<rect x="180" y="200" width="10" height="10" fill="white"/>
<rect x="190" y="200" width="10" height="10" fill="#00FCFF"/>
<rect x="120" y="200" width="10" height="10" fill="#00FCFF"/>
<rect x="90" y="180" width="10" height="10" fill="#0ADC4D"/>
<rect x="230" y="170" width="10" height="10" fill="#1929F4"/>
<rect x="230" y="160" width="10" height="10" fill="#1929F4"/>
<rect x="90" y="190" width="20" height="10" fill="#0ADC4D"/>
<rect x="220" y="180" width="20" height="10" fill="#1929F4"/>
<rect x="90" y="200" width="30" height="10" fill="#0ADC4D"/>
<rect x="200" y="200" width="40" height="10" fill="#1929F4"/>
<rect x="210" y="190" width="30" height="10" fill="#1929F4"/>
<rect x="180" y="150" width="10" height="10" fill="white"/>
<rect x="180" y="160" width="20" height="10" fill="white"/>
<rect x="180" y="170" width="20" height="10" fill="white"/>
<rect x="180" y="180" width="20" height="10" fill="white"/>
<rect x="180" y="190" width="20" height="10" fill="white"/>
<rect x="120" y="160" width="30" height="10" fill="white"/>
<rect x="120" y="170" width="30" height="10" fill="white"/>
<rect x="120" y="180" width="30" height="10" fill="white"/>
<rect x="120" y="190" width="30" height="10" fill="white"/>
<rect x="90" y="180" width="60" height="10" fill="#FFC110"/>
<rect x="180" y="180" width="60" height="10" fill="#CC0595"/>
</svg>
