<svg width="320" height="320" viewBox="0 0 320 320" fill="none" xmlns="http://www.w3.org/2000/svg">
<rect x="90" y="150" width="60" height="30" fill="#62616D"/>
<rect x="90" y="180" width="60" height="30" fill="#62616D"/>
<rect x="180" y="150" width="60" height="30" fill="#62616D"/>
<rect x="180" y="180" width="60" height="30" fill="#62616D"/>
<rect x="90" y="180" width="60" height="10" fill="#4B4949"/>
<rect x="180" y="180" width="60" height="10" fill="#4B4949"/>
<rect x="100" y="160" width="10" height="10" fill="#62616D"/>
<rect x="130" y="150" width="10" height="30" fill="#4B4949"/>
<rect x="120" y="180" width="10" height="30" fill="#4B4949"/>
<rect x="200" y="180" width="10" height="30" fill="#4B4949"/>
<rect x="190" y="150" width="10" height="30" fill="#4B4949"/>
<rect x="120" y="110" width="10" height="30" fill="#4B4949"/>
<rect x="130" y="120" width="20" height="10" fill="#4B4949"/>
<rect x="130" y="90" width="60" height="10" fill="#4B4949"/>
<rect x="130" y="100" width="60" height="10" fill="#FF1A0B"/>
<rect x="130" y="110" width="60" height="10" fill="#F78A18"/>
<rect x="180" y="120" width="20" height="10" fill="#4B4949"/>
<rect x="190" y="110" width="10" height="10" fill="#4B4949"/>
<rect x="170" y="130" width="10" height="10" fill="#4B4949"/>
<rect x="200" y="130" width="10" height="10" fill="#4B4949"/>
</svg>
