<svg width="320" height="320" viewBox="0 0 320 320" fill="none" xmlns="http://www.w3.org/2000/svg">
<rect width="60" height="20" transform="matrix(-1 0 0 1 150 190)" fill="#FFF0EE"/>
<rect x="180" y="190" width="60" height="20" fill="#FFF0EE"/>
<rect x="90" y="150" width="60" height="30" fill="#FFF0EE"/>
<rect x="180" y="150" width="60" height="30" fill="#FFF0EE"/>
<rect x="100" y="160" width="10" height="10" fill="#FFF0EE"/>
<path fill-rule="evenodd" clip-rule="evenodd" d="M110 150H90V160V170H100V180H110H120V170H130V160H110V150ZM150 190H140V200H130V190H120H110V200H100V190H90V200H100V210H110H120V200H130V210H150V200V190ZM180 190V200H190V210H200H210V200H220V210H240V200V190H230V200H220V190H210H200V200H190V190H180ZM200 180H210V170H220V180H230V170H220V160H200V170H190V180H200ZM110 160V170H100V160H110Z" fill="#7D635E"/>
</svg>
