<svg width="320" height="320" viewBox="0 0 320 320" fill="none" xmlns="http://www.w3.org/2000/svg">
<rect x="90" y="150" width="60" height="30" fill="#4B4949"/>
<rect x="90" y="180" width="60" height="30" fill="#4B4949"/>
<rect x="180" y="150" width="60" height="30" fill="#4B4949"/>
<rect x="180" y="180" width="60" height="30" fill="#4B4949"/>
<rect x="90" y="200" width="50" height="10" fill="black"/>
<rect x="140" y="190" width="10" height="10" fill="black"/>
<rect x="100" y="180" width="40" height="10" fill="black"/>
<rect width="50" height="10" transform="matrix(-1 0 0 1 240 200)" fill="black"/>
<rect width="10" height="10" transform="matrix(-1 0 0 1 190 190)" fill="black"/>
<rect width="40" height="10" transform="matrix(-1 0 0 1 230 180)" fill="black"/>
<rect x="130" y="150" width="10" height="60" fill="black"/>
<rect x="180" y="150" width="10" height="60" fill="black"/>
<rect x="70" y="130" width="30" height="10" fill="white"/>
<rect x="120" y="130" width="30" height="10" fill="white"/>
<rect x="70" y="140" width="10" height="10" fill="#ABAAA8"/>
<rect x="70" y="220" width="10" height="20" fill="#4B4949"/>
<rect x="120" y="230" width="10" height="20" fill="#4B4949"/>
<rect x="80" y="220" width="10" height="20" fill="black"/>
<rect x="130" y="230" width="10" height="20" fill="black"/>
<rect x="90" y="220" width="10" height="20" fill="#4B4949"/>
<rect x="140" y="230" width="10" height="20" fill="#4B4949"/>
<rect x="240" y="110" width="10" height="20" fill="#ABF131"/>
<rect x="240" y="100" width="10" height="10" fill="#F3322C"/>
</svg>
