<svg width="320" height="320" viewBox="0 0 320 320" fill="none" xmlns="http://www.w3.org/2000/svg">
<rect x="90" y="200" width="60" height="10" fill="#CAEFF9"/>
<rect x="180" y="200" width="60" height="10" fill="#CAEFF9"/>
<rect width="50" height="10" transform="matrix(-1 0 0 1 240 160)" fill="#F39713"/>
<rect width="60" height="10" transform="matrix(-1 0 0 1 240 150)" fill="#F39713"/>
<rect width="30" height="10" transform="matrix(-1 0 0 1 240 170)" fill="#F39713"/>
<rect width="10" height="10" transform="matrix(-1 0 0 1 240 180)" fill="#F39713"/>
<rect x="90" y="160" width="50" height="10" fill="#E8E8E2"/>
<rect x="90" y="150" width="60" height="10" fill="#E8E8E2"/>
<rect x="90" y="170" width="30" height="10" fill="#E8E8E2"/>
<rect x="90" y="180" width="10" height="10" fill="#E8E8E2"/>
<rect x="100" y="150" width="10" height="10" fill="white"/>
<rect x="120" y="150" width="10" height="10" fill="white"/>
<rect x="140" y="150" width="10" height="10" fill="white"/>
<rect x="100" y="170" width="10" height="10" fill="white"/>
</svg>
