<svg width="320" height="320" viewBox="0 0 320 320" fill="none" xmlns="http://www.w3.org/2000/svg">
<rect x="90" y="190" width="60" height="20" fill="#4BEA69"/>
<rect x="180" y="190" width="60" height="20" fill="#4BEA69"/>
<rect x="180" y="190" width="10" height="10" fill="#27A463"/>
<rect width="10" height="10" transform="matrix(-1 0 0 1 150 190)" fill="#27A463"/>
<rect x="200" y="190" width="10" height="10" fill="#27A463"/>
<rect width="10" height="10" transform="matrix(-1 0 0 1 130 190)" fill="#27A463"/>
<rect x="190" y="200" width="10" height="10" fill="#27A463"/>
<rect width="10" height="10" transform="matrix(-1 0 0 1 140 200)" fill="#27A463"/>
<rect x="220" y="190" width="10" height="10" fill="#27A463"/>
<rect width="10" height="10" transform="matrix(-1 0 0 1 110 190)" fill="#27A463"/>
<rect x="210" y="200" width="10" height="10" fill="#27A463"/>
<rect width="10" height="10" transform="matrix(-1 0 0 1 120 200)" fill="#27A463"/>
<rect x="230" y="200" width="10" height="10" fill="#27A463"/>
<rect width="10" height="10" transform="matrix(-1 0 0 1 100 200)" fill="#27A463"/>
<rect x="90" y="190" width="60" height="10" fill="#068940"/>
<rect x="180" y="190" width="60" height="10" fill="#068940"/>
</svg>
