<svg width="320" height="320" viewBox="0 0 320 320" fill="none" xmlns="http://www.w3.org/2000/svg">
<rect width="60" height="20" transform="matrix(-1 0 0 1 150 190)" fill="#FFFDF2"/>
<rect x="180" y="190" width="60" height="20" fill="#FFFDF2"/>
<rect x="90" y="150" width="60" height="30" fill="#FFFDF2"/>
<rect x="180" y="150" width="60" height="30" fill="#FFFDF2"/>
<rect x="100" y="160" width="10" height="10" fill="#FFFDF2"/>
<rect x="100" y="150" width="10" height="30" fill="#FFF0BE"/>
<rect x="140" y="150" width="10" height="30" fill="#FFF0BE"/>
<rect x="180" y="150" width="10" height="30" fill="#FFF0BE"/>
<rect x="220" y="150" width="10" height="30" fill="#FFF0BE"/>
<rect x="100" y="190" width="10" height="20" fill="#FFF0BE"/>
<rect x="140" y="190" width="10" height="20" fill="#FFF0BE"/>
<rect x="180" y="190" width="10" height="20" fill="#FFF0BE"/>
<rect x="220" y="190" width="10" height="20" fill="#FFF0BE"/>
<rect x="120" y="220" width="10" height="10" fill="#FFFDF2"/>
</svg>
