<svg width="320" height="320" viewBox="0 0 320 320" fill="none" xmlns="http://www.w3.org/2000/svg">
<rect x="180" y="150" width="60" height="30" fill="#FF638D"/>
<rect x="90" y="150" width="60" height="30" fill="#FF638D"/>
<rect x="90" y="170" width="60" height="40" fill="#FF638D"/>
<rect x="180" y="170" width="60" height="40" fill="#FF638D"/>
<rect x="190" y="160" width="40" height="10" fill="#E9265C"/>
<rect x="100" y="160" width="40" height="10" fill="#E9265C"/>
<rect x="180" y="170" width="10" height="10" fill="#E9265C"/>
<rect x="90" y="170" width="10" height="10" fill="#E9265C"/>
<rect x="230" y="170" width="10" height="10" fill="#E9265C"/>
<rect x="140" y="170" width="10" height="10" fill="#E9265C"/>
<rect x="100" y="150" width="10" height="10" fill="#FF638D"/>
<rect x="100" y="150" width="10" height="10" fill="#E9265C"/>
<rect x="120" y="160" width="10" height="10" fill="#E9265C"/>
<rect x="130" y="170" width="10" height="10" fill="#E9265C"/>
<rect x="210" y="190" width="10" height="10" fill="#E9265C"/>
<rect x="100" y="190" width="10" height="10" fill="#E9265C"/>
<rect x="140" y="190" width="10" height="10" fill="#E9265C"/>
<rect x="140" y="200" width="10" height="10" fill="#E9265C"/>
<rect x="90" y="200" width="20" height="10" fill="#E9265C"/>
<rect x="180" y="200" width="20" height="10" fill="#E9265C"/>
<rect x="210" y="200" width="30" height="10" fill="#E9265C"/>
</svg>
