<svg width="320" height="320" viewBox="0 0 320 320" fill="none" xmlns="http://www.w3.org/2000/svg">
<rect x="90" y="150" width="60" height="30" fill="#62616D"/>
<rect x="90" y="180" width="60" height="30" fill="#62616D"/>
<rect x="180" y="150" width="60" height="30" fill="#62616D"/>
<rect x="180" y="180" width="60" height="30" fill="#62616D"/>
<rect x="90" y="200" width="50" height="10" fill="#4B4949"/>
<rect x="140" y="190" width="10" height="10" fill="#4B4949"/>
<rect x="100" y="180" width="40" height="10" fill="#4B4949"/>
<rect width="50" height="10" transform="matrix(-1 0 0 1 240 200)" fill="#4B4949"/>
<rect width="10" height="10" transform="matrix(-1 0 0 1 190 190)" fill="#4B4949"/>
<rect width="40" height="10" transform="matrix(-1 0 0 1 230 180)" fill="#4B4949"/>
<rect x="120" y="180" width="10" height="30" fill="#4B4949"/>
<rect x="200" y="180" width="10" height="30" fill="#4B4949"/>
<rect x="190" y="150" width="10" height="30" fill="#4B4949"/>
<rect x="130" y="150" width="10" height="30" fill="#4B4949"/>
<rect x="100" y="40" width="10" height="10" fill="#FF1A0B"/>
<rect x="230" y="80" width="10" height="10" fill="#FF1A0B"/>
<rect x="170" y="40" width="10" height="10" fill="#FF1A0B"/>
<rect x="170" y="50" width="10" height="10" fill="#FF1A0B"/>
<rect x="80" y="90" width="20" height="10" fill="#FF1A0B"/>
<rect x="70" y="100" width="10" height="10" fill="#F78A18"/>
<rect x="200" y="60" width="10" height="10" fill="#F78A18"/>
<rect x="140" y="60" width="10" height="10" fill="#F78A18"/>
<rect x="180" y="30" width="10" height="10" fill="#F78A18"/>
</svg>
