<svg width="320" height="320" viewBox="0 0 320 320" fill="none" xmlns="http://www.w3.org/2000/svg">
<rect x="90" y="150" width="60" height="30" fill="#FFA21E"/>
<rect x="90" y="180" width="60" height="30" fill="#FFA21E"/>
<rect x="180" y="150" width="60" height="30" fill="#FFA21E"/>
<rect x="180" y="180" width="60" height="30" fill="#FFA21E"/>
<rect x="90" y="200" width="50" height="10" fill="#D08B11"/>
<rect x="140" y="190" width="10" height="10" fill="#D08B11"/>
<rect x="100" y="180" width="40" height="10" fill="#D08B11"/>
<rect width="50" height="10" transform="matrix(-1 0 0 1 240 200)" fill="#D08B11"/>
<rect width="10" height="10" transform="matrix(-1 0 0 1 190 190)" fill="#D08B11"/>
<rect width="40" height="10" transform="matrix(-1 0 0 1 230 180)" fill="#D08B11"/>
<rect x="140" y="200" width="10" height="10" fill="#00A556"/>
<rect x="180" y="200" width="10" height="10" fill="#00A556"/>
</svg>
