<svg width="320" height="320" viewBox="0 0 320 320" fill="none" xmlns="http://www.w3.org/2000/svg">
<rect width="50" height="10" transform="matrix(-1 0 0 1 240 160)" fill="white"/>
<rect width="60" height="10" transform="matrix(-1 0 0 1 240 150)" fill="white"/>
<rect width="30" height="10" transform="matrix(-1 0 0 1 240 170)" fill="white"/>
<rect width="10" height="10" transform="matrix(-1 0 0 1 240 180)" fill="white"/>
<rect x="90" y="160" width="50" height="10" fill="white"/>
<rect x="90" y="150" width="60" height="10" fill="white"/>
<rect x="90" y="170" width="30" height="10" fill="white"/>
<rect x="90" y="180" width="10" height="10" fill="white"/>
<rect x="100" y="160" width="10" height="10" fill="white"/>
<rect x="130" y="150" width="10" height="10" fill="#7CC4F2"/>
<rect x="110" y="170" width="10" height="10" fill="#7CC4F2"/>
<rect x="210" y="170" width="20" height="10" fill="#7CC4F2"/>
<rect x="200" y="150" width="10" height="10" fill="#7CC4F2"/>
</svg>
