<svg width="320" height="320" viewBox="0 0 320 320" fill="none" xmlns="http://www.w3.org/2000/svg">
<rect width="50" height="10" transform="matrix(-1 0 0 1 240 160)" fill="#FF1A0B"/>
<rect width="60" height="10" transform="matrix(-1 0 0 1 240 150)" fill="#FF1A0B"/>
<rect width="30" height="10" transform="matrix(-1 0 0 1 240 170)" fill="#FF1A0B"/>
<rect width="10" height="10" transform="matrix(-1 0 0 1 240 180)" fill="#FF1A0B"/>
<rect x="90" y="160" width="50" height="10" fill="#FF1A0B"/>
<rect x="90" y="150" width="60" height="10" fill="#FF1A0B"/>
<rect x="90" y="170" width="30" height="10" fill="#FF1A0B"/>
<rect x="90" y="180" width="10" height="10" fill="#FF1A0B"/>
<rect x="100" y="160" width="10" height="10" fill="#FF1A0B"/>
<rect x="90" y="180" width="10" height="10" fill="#EAB118"/>
<rect x="140" y="150" width="10" height="10" fill="#EAB118"/>
<rect x="230" y="150" width="10" height="30" fill="#EAB118"/>
</svg>
