<svg width="320" height="320" viewBox="0 0 320 320" fill="none" xmlns="http://www.w3.org/2000/svg">
<rect x="90" y="150" width="60" height="30" fill="#D4B7B2"/>
<rect x="90" y="180" width="60" height="30" fill="#D4B7B2"/>
<rect x="180" y="150" width="60" height="30" fill="#D4B7B2"/>
<rect x="180" y="180" width="60" height="30" fill="#D4B7B2"/>
<rect x="90" y="200" width="50" height="10" fill="#C3A199"/>
<rect x="140" y="190" width="10" height="10" fill="#C3A199"/>
<rect x="100" y="180" width="40" height="10" fill="#C3A199"/>
<rect width="50" height="10" transform="matrix(-1 0 0 1 240 200)" fill="#C3A199"/>
<rect width="10" height="10" transform="matrix(-1 0 0 1 190 190)" fill="#C3A199"/>
<rect width="40" height="10" transform="matrix(-1 0 0 1 230 180)" fill="#C3A199"/>
<rect x="90" y="150" width="60" height="10" fill="#5648ED"/>
<rect x="90" y="160" width="60" height="10" fill="#FFC110"/>
<rect x="180" y="150" width="60" height="10" fill="#5648ED"/>
<rect x="180" y="160" width="60" height="10" fill="#FFC110"/>
</svg>
