<svg width="320" height="320" viewBox="0 0 320 320" fill="none" xmlns="http://www.w3.org/2000/svg">
<rect x="90" y="150" width="60" height="30" fill="#ABAAA8"/>
<rect x="90" y="180" width="60" height="30" fill="#ABAAA8"/>
<rect x="180" y="150" width="60" height="30" fill="#ABAAA8"/>
<rect x="180" y="180" width="60" height="30" fill="#ABAAA8"/>
<rect x="90" y="200" width="50" height="10" fill="#62616D"/>
<rect x="140" y="190" width="10" height="10" fill="#62616D"/>
<rect x="100" y="180" width="40" height="10" fill="#62616D"/>
<rect width="50" height="10" transform="matrix(-1 0 0 1 240 200)" fill="#62616D"/>
<rect width="10" height="10" transform="matrix(-1 0 0 1 190 190)" fill="#62616D"/>
<rect width="40" height="10" transform="matrix(-1 0 0 1 230 180)" fill="#62616D"/>
<rect x="90" y="100" width="30" height="10" fill="#6B3F39"/>
<rect x="100" y="120" width="20" height="10" fill="#6B3F39"/>
<rect x="200" y="120" width="20" height="10" fill="#6B3F39"/>
<rect x="200" y="100" width="30" height="10" fill="#6B3F39"/>
<rect x="100" y="110" width="120" height="10" fill="#6B3F39"/>
<rect x="100" y="90" width="120" height="10" fill="#6B3F39"/>
<rect x="110" y="120" width="100" height="10" fill="#343235"/>
<rect x="120" y="100" width="80" height="10" fill="#343235"/>
<rect x="110" y="110" width="100" height="10" fill="#343235"/>
<rect x="90" y="110" width="10" height="20" fill="#343235"/>
<rect x="80" y="90" width="10" height="20" fill="#343235"/>
<rect x="90" y="80" width="10" height="20" fill="#343235"/>
<rect width="10" height="20" transform="matrix(-1 0 0 1 230 110)" fill="#343235"/>
<rect width="10" height="20" transform="matrix(-1 0 0 1 240 90)" fill="#343235"/>
<rect width="10" height="20" transform="matrix(-1 0 0 1 230 80)" fill="#343235"/>
<rect width="120" height="10" transform="matrix(-1 0 0 1 220 80)" fill="#343235"/>
</svg>
