<svg width="320" height="320" viewBox="0 0 320 320" fill="none" xmlns="http://www.w3.org/2000/svg">
<rect x="90" y="150" width="60" height="60" fill="#CFC2AB"/>
<rect x="180" y="150" width="60" height="60" fill="#9D8E6E"/>
<rect x="190" y="160" width="40" height="10" fill="black"/>
<rect x="130" y="180" width="20" height="30" fill="#9D8E6E"/>
<rect x="130" y="150" width="20" height="30" fill="#9D8E6E"/>
<rect x="140" y="190" width="10" height="20" fill="#F8DDB0"/>
<rect x="140" y="160" width="10" height="20" fill="#F8DDB0"/>
<rect x="100" y="160" width="40" height="10" fill="black"/>
<rect x="180" y="170" width="10" height="10" fill="black"/>
<rect x="90" y="170" width="10" height="10" fill="black"/>
<rect x="230" y="170" width="10" height="10" fill="black"/>
<rect x="140" y="170" width="10" height="10" fill="black"/>
<rect x="90" y="180" width="30" height="30" fill="#B92B3C"/>
<rect x="100" y="170" width="20" height="10" fill="#B92B3C"/>
<rect x="90" y="160" width="10" height="10" fill="#B92B3C"/>
<rect x="180" y="190" width="10" height="20" fill="#F8DDB0"/>
<rect x="200" y="190" width="20" height="20" fill="#F8DDB0"/>
<rect x="180" y="160" width="10" height="10" fill="#F8DDB0"/>
<rect x="200" y="170" width="20" height="10" fill="#F8DDB0"/>
</svg>
