<svg width="320" height="320" viewBox="0 0 320 320" fill="none" xmlns="http://www.w3.org/2000/svg">
<rect x="180" y="180" width="60" height="30" fill="#FFF0EE"/>
<rect x="180" y="150" width="60" height="30" fill="#FFF0EE"/>
<path fill-rule="evenodd" clip-rule="evenodd" d="M220 160H200V170H190V180H180V190V200H190V210H200H210V200H220V210H240V200V190H230V180V170H220V160ZM220 180V170H210V180H200V190H190V200H200V190H210V180H220ZM230 190H220V200H230V190Z" fill="#7D635E"/>
<rect x="190" y="170" width="40" height="10" fill="black"/>
<rect x="180" y="180" width="10" height="10" fill="black"/>
<rect x="230" y="170" width="10" height="10" fill="black"/>
</svg>
