<svg width="320" height="320" viewBox="0 0 320 320" fill="none" xmlns="http://www.w3.org/2000/svg">
<rect x="90" y="200" width="60" height="10" fill="#CAEFF9"/>
<rect x="180" y="200" width="60" height="10" fill="#CAEFF9"/>
<rect width="50" height="10" transform="matrix(-1 0 0 1 240 160)" fill="#FF1AD2"/>
<rect width="60" height="10" transform="matrix(-1 0 0 1 240 150)" fill="#FF1AD2"/>
<rect width="30" height="10" transform="matrix(-1 0 0 1 240 170)" fill="#FF1AD2"/>
<rect width="10" height="10" transform="matrix(-1 0 0 1 240 180)" fill="#FF1AD2"/>
<rect x="90" y="160" width="50" height="10" fill="#FFEF16"/>
<rect x="90" y="150" width="60" height="10" fill="#FFEF16"/>
<rect x="90" y="170" width="30" height="10" fill="#FFEF16"/>
<rect x="90" y="180" width="10" height="10" fill="#FFEF16"/>
<rect x="130" y="150" width="20" height="10" fill="white"/>
<rect x="90" y="180" width="10" height="10" fill="#0ADC4D"/>
<rect x="230" y="170" width="10" height="10" fill="#1929F4"/>
<rect x="230" y="160" width="10" height="10" fill="#1929F4"/>
<rect x="230" y="180" width="10" height="10" fill="#1929F4"/>
<rect x="180" y="150" width="10" height="10" fill="white"/>
<rect x="190" y="160" width="10" height="10" fill="white"/>
<rect x="120" y="160" width="20" height="10" fill="white"/>
</svg>
