<svg width="320" height="320" viewBox="0 0 320 320" fill="none" xmlns="http://www.w3.org/2000/svg">
<rect x="90" y="150" width="60" height="30" fill="#DA42CB"/>
<rect x="90" y="180" width="60" height="30" fill="#DA42CB"/>
<rect x="180" y="150" width="60" height="30" fill="#DA42CB"/>
<rect x="180" y="180" width="60" height="30" fill="#DA42CB"/>
<rect x="90" y="200" width="50" height="10" fill="#922EA2"/>
<rect x="140" y="190" width="10" height="10" fill="#922EA2"/>
<rect x="100" y="180" width="40" height="10" fill="#922EA2"/>
<rect width="50" height="10" transform="matrix(-1 0 0 1 240 200)" fill="#922EA2"/>
<rect width="10" height="10" transform="matrix(-1 0 0 1 190 190)" fill="#922EA2"/>
<rect width="40" height="10" transform="matrix(-1 0 0 1 230 180)" fill="#922EA2"/>
<rect x="140" y="200" width="10" height="10" fill="#AB36BE"/>
<rect x="180" y="200" width="10" height="10" fill="#AB36BE"/>
</svg>
