<svg width="320" height="320" viewBox="0 0 320 320" fill="none" xmlns="http://www.w3.org/2000/svg">
<rect width="50" height="10" transform="matrix(-1 0 0 1 240 160)" fill="#E9265C"/>
<rect width="60" height="10" transform="matrix(-1 0 0 1 240 150)" fill="#E9265C"/>
<rect width="30" height="10" transform="matrix(-1 0 0 1 240 170)" fill="#E9265C"/>
<rect width="10" height="10" transform="matrix(-1 0 0 1 240 180)" fill="#E9265C"/>
<rect x="90" y="160" width="50" height="10" fill="#4BEA69"/>
<rect x="90" y="150" width="60" height="10" fill="#4BEA69"/>
<rect x="90" y="170" width="30" height="10" fill="#4BEA69"/>
<rect x="90" y="180" width="10" height="10" fill="#4BEA69"/>
<rect x="130" y="150" width="20" height="10" fill="#FFD067"/>
<rect x="190" y="160" width="20" height="10" fill="#FFD067"/>
<rect x="130" y="160" width="10" height="10" fill="#FFD067"/>
<rect x="180" y="150" width="30" height="10" fill="#FFD067"/>
</svg>
