<svg width="320" height="320" viewBox="0 0 320 320" fill="none" xmlns="http://www.w3.org/2000/svg">
<rect x="90" y="150" width="60" height="30" fill="white"/>
<rect x="90" y="180" width="60" height="30" fill="white"/>
<rect x="180" y="150" width="60" height="30" fill="white"/>
<rect x="180" y="180" width="60" height="30" fill="white"/>
<rect x="90" y="180" width="60" height="10" fill="#CBC1BC"/>
<rect x="180" y="180" width="60" height="10" fill="#CBC1BC"/>
<rect x="100" y="80" width="30" height="10" fill="white"/>
<rect x="90" y="240" width="30" height="10" fill="white"/>
<rect x="130" y="240" width="40" height="10" fill="white"/>
<rect x="40" y="140" width="10" height="40" fill="white"/>
<rect x="50" y="200" width="10" height="20" fill="white"/>
<rect x="30" y="150" width="10" height="20" fill="white"/>
<rect width="10" height="40" transform="matrix(-1 0 0 1 280 140)" fill="white"/>
<rect width="10" height="20" transform="matrix(-1 0 0 1 290 150)" fill="white"/>
<rect x="40" y="190" width="10" height="20" fill="white"/>
<rect width="10" height="40" transform="matrix(-1 0 0 1 270 180)" fill="white"/>
<rect width="10" height="20" transform="matrix(-1 0 0 1 280 190)" fill="white"/>
<rect x="60" y="220" width="10" height="10" fill="white"/>
<rect x="80" y="230" width="10" height="10" fill="white"/>
<rect x="140" y="80" width="40" height="10" fill="white"/>
<rect x="190" y="80" width="30" height="10" fill="white"/>
<rect x="150" y="70" width="20" height="10" fill="white"/>
<rect x="140" y="250" width="20" height="10" fill="white"/>
<rect x="190" y="240" width="10" height="10" fill="white"/>
<rect x="50" y="110" width="10" height="20" fill="white"/>
<rect x="60" y="100" width="10" height="10" fill="white"/>
<rect width="10" height="20" transform="matrix(-1 0 0 1 270 110)" fill="white"/>
<rect width="10" height="10" transform="matrix(-1 0 0 1 260 100)" fill="white"/>
</svg>
