<svg width="320" height="320" viewBox="0 0 320 320" fill="none" xmlns="http://www.w3.org/2000/svg">
<rect x="90" y="150" width="60" height="30" fill="white"/>
<rect x="90" y="180" width="60" height="30" fill="white"/>
<rect x="180" y="150" width="60" height="30" fill="white"/>
<rect x="180" y="180" width="60" height="30" fill="white"/>
<rect x="90" y="200" width="50" height="10" fill="#CBC1BC"/>
<rect x="140" y="190" width="10" height="10" fill="#CBC1BC"/>
<rect x="100" y="180" width="40" height="10" fill="#CBC1BC"/>
<rect width="50" height="10" transform="matrix(-1 0 0 1 240 200)" fill="#CBC1BC"/>
<rect width="10" height="10" transform="matrix(-1 0 0 1 190 190)" fill="#CBC1BC"/>
<rect width="40" height="10" transform="matrix(-1 0 0 1 230 180)" fill="#CBC1BC"/>
<rect x="210" y="240" width="20" height="10" fill="white"/>
<rect x="210" y="250" width="10" height="10" fill="white"/>
<rect x="190" y="260" width="20" height="10" fill="white"/>
<rect x="190" y="260" width="10" height="20" fill="white"/>
<rect x="100" y="220" width="10" height="40" fill="white"/>
<rect x="110" y="220" width="10" height="30" fill="white"/>
<rect x="120" y="220" width="10" height="20" fill="white"/>
<rect x="130" y="220" width="10" height="20" fill="white"/>
<rect x="140" y="220" width="10" height="30" fill="white"/>
<rect x="150" y="220" width="10" height="40" fill="white"/>
<rect x="160" y="220" width="10" height="30" fill="white"/>
<rect x="190" y="220" width="10" height="30" fill="white"/>
<rect x="200" y="220" width="10" height="40" fill="white"/>
<rect x="170" y="230" width="90" height="10" fill="white"/>
<rect x="170" y="220" width="80" height="10" fill="white"/>
<rect x="250" y="200" width="20" height="10" fill="white"/>
<rect x="250" y="190" width="40" height="10" fill="white"/>
<rect x="250" y="180" width="30" height="10" fill="white"/>
<rect x="250" y="170" width="20" height="10" fill="white"/>
<rect x="250" y="160" width="20" height="10" fill="white"/>
<rect x="250" y="150" width="40" height="10" fill="white"/>
<rect x="250" y="140" width="30" height="10" fill="white"/>
<rect x="220" y="130" width="50" height="10" fill="white"/>
<rect x="240" y="90" width="10" height="40" fill="white"/>
<rect x="180" y="70" width="10" height="50" fill="white"/>
<rect x="140" y="70" width="10" height="50" fill="white"/>
<rect x="70" y="110" width="180" height="30" fill="white"/>
<rect x="80" y="90" width="10" height="20" fill="white"/>
<rect x="90" y="70" width="10" height="40" fill="white"/>
<rect x="190" y="110" width="10" height="30" fill="white"/>
<rect x="130" y="110" width="10" height="30" fill="white"/>
<rect x="100" y="80" width="10" height="40" fill="white"/>
<rect x="150" y="80" width="10" height="40" fill="white"/>
<rect x="170" y="80" width="10" height="40" fill="white"/>
<rect x="200" y="130" width="10" height="10" fill="white"/>
<rect x="120" y="130" width="10" height="10" fill="white"/>
<rect x="30" y="190" width="20" height="10" fill="white"/>
<rect x="40" y="110" width="40" height="10" fill="white"/>
<rect x="70" y="220" width="40" height="10" fill="white"/>
<rect x="50" y="200" width="20" height="10" fill="white"/>
<rect x="50" y="120" width="30" height="10" fill="white"/>
<rect x="60" y="210" width="10" height="10" fill="white"/>
<rect x="60" y="230" width="40" height="10" fill="white"/>
<rect width="10" height="10" transform="matrix(-1 0 0 1 50 180)" fill="white"/>
<rect width="30" height="10" transform="matrix(-1 0 0 1 60 150)" fill="white"/>
<rect width="20" height="10" transform="matrix(-1 0 0 1 60 140)" fill="white"/>
<rect width="10" height="40" transform="matrix(-1 0 0 1 60 130)" fill="white"/>
<rect x="220" y="70" width="10" height="40" fill="white"/>
<rect x="210" y="80" width="10" height="30" fill="white"/>
</svg>
