<svg width="320" height="320" viewBox="0 0 320 320" fill="none" xmlns="http://www.w3.org/2000/svg">
<rect width="50" height="10" transform="matrix(-1 0 0 1 240 160)" fill="#FFFDF2"/>
<rect width="60" height="10" transform="matrix(-1 0 0 1 240 150)" fill="#FFFDF2"/>
<rect width="30" height="10" transform="matrix(-1 0 0 1 240 170)" fill="#FFFDF2"/>
<rect width="10" height="10" transform="matrix(-1 0 0 1 240 180)" fill="#FFFDF2"/>
<rect x="90" y="160" width="50" height="10" fill="#FFFDF2"/>
<rect x="90" y="150" width="60" height="10" fill="#FFFDF2"/>
<rect x="90" y="170" width="30" height="10" fill="#FFFDF2"/>
<rect x="90" y="180" width="10" height="10" fill="#FFFDF2"/>
<rect x="100" y="160" width="10" height="10" fill="#FFFDF2"/>
<rect x="100" y="150" width="10" height="30" fill="#FFF0BE"/>
<rect x="140" y="150" width="10" height="10" fill="#FFF0BE"/>
<rect x="180" y="150" width="10" height="10" fill="#FFF0BE"/>
<rect x="220" y="150" width="10" height="30" fill="#FFF0BE"/>
<rect x="120" y="220" width="10" height="10" fill="#FFFDF2"/>
<rect x="120" y="240" width="10" height="10" fill="#8DD122"/>
</svg>
