<svg width="320" height="320" viewBox="0 0 320 320" fill="none" xmlns="http://www.w3.org/2000/svg">
<rect x="90" y="150" width="60" height="10" fill="#FF638D"/>
<rect x="100" y="160" width="50" height="10" fill="#FF638D"/>
<rect x="120" y="170" width="30" height="10" fill="#FF638D"/>
<rect x="140" y="180" width="10" height="10" fill="#FF638D"/>
<rect x="180" y="160" width="50" height="10" fill="#FF638D"/>
<rect x="180" y="150" width="60" height="10" fill="#FF638D"/>
<rect x="180" y="170" width="30" height="10" fill="#FF638D"/>
<rect x="180" y="180" width="10" height="10" fill="#FF638D"/>
<rect x="110" y="60" width="10" height="10" fill="#E8705B"/>
<rect x="90" y="50" width="10" height="10" fill="#E8705B"/>
<rect x="100" y="80" width="10" height="10" fill="#E8705B"/>
<rect x="110" y="70" width="10" height="20" fill="#FFF671"/>
<rect x="120" y="70" width="10" height="10" fill="#E8705B"/>
<rect x="100" y="90" width="10" height="10" fill="#E8705B"/>
<rect x="110" y="90" width="10" height="10" fill="#FFF671"/>
<rect x="120" y="80" width="10" height="20" fill="#FFC110"/>
<rect x="110" y="100" width="10" height="10" fill="#FFC110"/>
<rect x="100" y="70" width="10" height="10" fill="#FFF671"/>
<rect x="160" y="100" width="10" height="10" fill="#FFC110"/>
<rect x="200" y="100" width="10" height="10" fill="#FFC110"/>
<rect x="100" y="60" width="10" height="20" fill="#FFC110"/>
<rect x="160" y="60" width="10" height="10" fill="#E8705B"/>
<rect x="140" y="50" width="10" height="10" fill="#E8705B"/>
<rect x="150" y="80" width="10" height="10" fill="#E8705B"/>
<rect x="160" y="70" width="10" height="20" fill="#FFF671"/>
<rect x="170" y="70" width="10" height="10" fill="#E8705B"/>
<rect x="150" y="90" width="10" height="10" fill="#E8705B"/>
<rect x="160" y="90" width="10" height="10" fill="#FFF671"/>
<rect x="170" y="80" width="10" height="20" fill="#FFC110"/>
<rect x="150" y="70" width="10" height="10" fill="#FFF671"/>
<rect x="150" y="60" width="10" height="20" fill="#FFC110"/>
<rect x="200" y="60" width="10" height="10" fill="#E8705B"/>
<rect x="180" y="50" width="10" height="10" fill="#E8705B"/>
<rect x="190" y="80" width="10" height="10" fill="#E8705B"/>
<rect x="200" y="70" width="10" height="20" fill="#FFF671"/>
<rect x="210" y="70" width="10" height="10" fill="#E8705B"/>
<rect x="190" y="90" width="10" height="10" fill="#E8705B"/>
<rect x="200" y="90" width="10" height="10" fill="#FFF671"/>
<rect x="210" y="80" width="10" height="20" fill="#FFC110"/>
<rect x="190" y="70" width="10" height="10" fill="#FFF671"/>
<rect x="190" y="60" width="10" height="20" fill="#FFC110"/>
</svg>
