<svg width="320" height="320" viewBox="0 0 320 320" fill="none" xmlns="http://www.w3.org/2000/svg">
<rect width="50" height="10" transform="matrix(-1 0 0 1 240 160)" fill="#4BEA69"/>
<rect width="60" height="10" transform="matrix(-1 0 0 1 240 150)" fill="#4BEA69"/>
<rect width="30" height="10" transform="matrix(-1 0 0 1 240 170)" fill="#4BEA69"/>
<rect width="10" height="10" transform="matrix(-1 0 0 1 240 180)" fill="#4BEA69"/>
<rect x="90" y="160" width="50" height="10" fill="#4BEA69"/>
<rect x="90" y="150" width="60" height="10" fill="#4BEA69"/>
<rect x="90" y="170" width="30" height="10" fill="#4BEA69"/>
<rect x="90" y="180" width="10" height="10" fill="#4BEA69"/>
<rect x="100" y="160" width="10" height="10" fill="#4BEA69"/>
<rect x="180" y="150" width="10" height="10" fill="#27A463"/>
<rect width="10" height="10" transform="matrix(-1 0 0 1 150 150)" fill="#27A463"/>
<rect x="190" y="160" width="10" height="10" fill="#27A463"/>
<rect width="10" height="10" transform="matrix(-1 0 0 1 140 160)" fill="#27A463"/>
<rect x="200" y="150" width="10" height="10" fill="#27A463"/>
<rect width="10" height="10" transform="matrix(-1 0 0 1 130 150)" fill="#27A463"/>
<rect x="210" y="160" width="10" height="10" fill="#27A463"/>
<rect width="10" height="10" transform="matrix(-1 0 0 1 120 160)" fill="#27A463"/>
<rect x="220" y="150" width="10" height="10" fill="#27A463"/>
<rect width="10" height="10" transform="matrix(-1 0 0 1 110 150)" fill="#27A463"/>
<rect x="220" y="170" width="10" height="10" fill="#27A463"/>
<rect width="10" height="10" transform="matrix(-1 0 0 1 110 170)" fill="#27A463"/>
<rect x="230" y="160" width="10" height="10" fill="#27A463"/>
<rect width="10" height="10" transform="matrix(-1 0 0 1 100 160)" fill="#27A463"/>
<rect x="230" y="180" width="10" height="10" fill="#27A463"/>
<rect width="10" height="10" transform="matrix(-1 0 0 1 100 180)" fill="#27A463"/>
</svg>
