<svg width="320" height="320" viewBox="0 0 320 320" fill="none" xmlns="http://www.w3.org/2000/svg">
<rect x="180" y="150" width="60" height="30" fill="#E7A32C"/>
<rect x="90" y="150" width="60" height="30" fill="#E7A32C"/>
<rect x="90" y="170" width="60" height="40" fill="#E7A32C"/>
<rect x="180" y="170" width="60" height="40" fill="#E7A32C"/>
<rect x="190" y="160" width="40" height="10" fill="#D08B11"/>
<rect x="100" y="160" width="40" height="10" fill="#D08B11"/>
<rect x="180" y="170" width="10" height="10" fill="#D08B11"/>
<rect x="90" y="170" width="10" height="10" fill="#D08B11"/>
<rect x="230" y="170" width="10" height="10" fill="#D08B11"/>
<rect x="140" y="170" width="10" height="10" fill="#D08B11"/>
<rect x="100" y="150" width="10" height="10" fill="#E7A32C"/>
<rect x="100" y="200" width="10" height="10" fill="#D08B11"/>
<rect x="230" y="160" width="10" height="10" fill="#C16710"/>
<rect x="220" y="150" width="20" height="10" fill="#70E890"/>
<rect x="200" y="150" width="20" height="10" fill="#AE3208"/>
<rect x="100" y="150" width="20" height="10" fill="#AE3208"/>
<rect x="90" y="180" width="10" height="10" fill="#D08B11"/>
<rect x="90" y="150" width="10" height="10" fill="#FFF0BE"/>
<rect x="130" y="150" width="10" height="10" fill="#D08B11"/>
<rect x="210" y="170" width="10" height="10" fill="#D08B11"/>
<rect x="230" y="200" width="10" height="10" fill="#D08B11"/>
</svg>
