<svg width="320" height="320" viewBox="0 0 320 320" fill="none" xmlns="http://www.w3.org/2000/svg">
<rect x="90" y="150" width="60" height="30" fill="#D18687"/>
<rect x="90" y="180" width="60" height="30" fill="#D18687"/>
<rect x="180" y="150" width="60" height="30" fill="#D18687"/>
<rect x="180" y="180" width="60" height="30" fill="#D18687"/>
<rect x="110" y="150" width="10" height="10" fill="#E2C8C0"/>
<rect x="90" y="170" width="10" height="10" fill="#E2C8C0"/>
<rect x="110" y="180" width="10" height="10" fill="#E2C8C0"/>
<rect x="90" y="200" width="10" height="10" fill="#E2C8C0"/>
<rect x="140" y="170" width="10" height="10" fill="#E2C8C0"/>
<rect x="180" y="170" width="10" height="10" fill="#E2C8C0"/>
<rect x="200" y="150" width="10" height="10" fill="#E2C8C0"/>
<rect x="230" y="150" width="10" height="10" fill="#E2C8C0"/>
<rect x="210" y="180" width="10" height="10" fill="#E2C8C0"/>
<rect x="200" y="200" width="10" height="10" fill="#E2C8C0"/>
<rect x="100" y="150" width="10" height="60" fill="#5D6061"/>
<rect x="190" y="150" width="10" height="60" fill="#5D6061"/>
<rect x="130" y="150" width="10" height="60" fill="#5D6061"/>
<rect x="220" y="150" width="10" height="60" fill="#5D6061"/>
<rect x="90" y="160" width="60" height="10" fill="#5D6061"/>
<rect x="180" y="160" width="60" height="10" fill="#5D6061"/>
<rect x="90" y="190" width="60" height="10" fill="#5D6061"/>
<rect x="180" y="190" width="60" height="10" fill="#5D6061"/>
<rect x="90" y="200" width="50" height="10" fill="black"/>
<rect x="140" y="190" width="10" height="10" fill="black"/>
<rect x="100" y="180" width="40" height="10" fill="black"/>
<rect width="50" height="10" transform="matrix(-1 0 0 1 240 200)" fill="black"/>
<rect width="10" height="10" transform="matrix(-1 0 0 1 190 190)" fill="black"/>
<rect width="40" height="10" transform="matrix(-1 0 0 1 230 180)" fill="black"/>
</svg>
