<svg width="320" height="320" viewBox="0 0 320 320" fill="none" xmlns="http://www.w3.org/2000/svg">
<rect x="90" y="150" width="60" height="10" fill="#D18687"/>
<rect x="100" y="160" width="50" height="10" fill="#D18687"/>
<rect x="120" y="170" width="30" height="10" fill="#D18687"/>
<rect x="140" y="180" width="10" height="10" fill="#D18687"/>
<rect x="180" y="160" width="50" height="10" fill="#D18687"/>
<rect x="180" y="150" width="60" height="10" fill="#D18687"/>
<rect x="180" y="170" width="30" height="10" fill="#D18687"/>
<rect x="180" y="180" width="10" height="10" fill="#D18687"/>
<rect x="100" y="160" width="10" height="10" fill="#D18687"/>
<rect x="110" y="150" width="10" height="10" fill="#E2C8C0"/>
<rect x="140" y="170" width="10" height="10" fill="#E2C8C0"/>
<rect x="180" y="170" width="10" height="10" fill="#E2C8C0"/>
<rect x="200" y="150" width="10" height="10" fill="#E2C8C0"/>
<rect x="230" y="150" width="10" height="10" fill="#E2C8C0"/>
<rect x="100" y="150" width="10" height="20" fill="#5D6061"/>
<rect x="190" y="150" width="10" height="30" fill="#5D6061"/>
<rect x="130" y="150" width="10" height="30" fill="#5D6061"/>
<rect x="220" y="150" width="10" height="10" fill="#5D6061"/>
<rect x="110" y="160" width="40" height="10" fill="#5D6061"/>
<rect x="180" y="160" width="50" height="10" fill="#5D6061"/>
</svg>
