<svg width="320" height="320" viewBox="0 0 320 320" fill="none" xmlns="http://www.w3.org/2000/svg">
<rect x="90" y="150" width="60" height="30" fill="#CFC2AB"/>
<rect x="90" y="180" width="60" height="30" fill="#CFC2AB"/>
<rect x="180" y="150" width="60" height="30" fill="#CFC2AB"/>
<rect x="180" y="180" width="60" height="30" fill="#CFC2AB"/>
<rect x="90" y="200" width="50" height="10" fill="#5A423F"/>
<rect x="140" y="190" width="10" height="10" fill="#5A423F"/>
<rect x="100" y="180" width="40" height="10" fill="#5A423F"/>
<rect width="50" height="10" transform="matrix(-1 0 0 1 240 200)" fill="#5A423F"/>
<rect width="10" height="10" transform="matrix(-1 0 0 1 190 190)" fill="#5A423F"/>
<rect width="40" height="10" transform="matrix(-1 0 0 1 230 180)" fill="#5A423F"/>
<rect x="200" y="160" width="30" height="10" fill="#F8DDB0"/>
<rect x="100" y="160" width="30" height="10" fill="#F8DDB0"/>
<rect x="200" y="190" width="30" height="10" fill="#F8DDB0"/>
<rect x="100" y="190" width="30" height="10" fill="#F8DDB0"/>
<rect x="100" y="220" width="140" height="20" fill="#0B5027"/>
<rect x="100" y="220" width="50" height="10" fill="#42FFB0"/>
<rect x="110" y="220" width="10" height="20" fill="#42FFB0"/>
<rect x="130" y="220" width="10" height="20" fill="#42FFB0"/>
<rect x="160" y="230" width="10" height="10" fill="#42FFB0"/>
<rect x="160" y="210" width="10" height="10" fill="#42FFB0"/>
<rect x="180" y="220" width="10" height="10" fill="#42FFB0"/>
<rect x="190" y="230" width="10" height="10" fill="#42FFB0"/>
<rect x="200" y="220" width="10" height="10" fill="#42FFB0"/>
<rect x="210" y="230" width="10" height="10" fill="#42FFB0"/>
<rect x="230" y="230" width="10" height="10" fill="#42FFB0"/>
</svg>
