<svg width="320" height="320" viewBox="0 0 320 320" fill="none" xmlns="http://www.w3.org/2000/svg">
<rect x="90" y="150" width="60" height="30" fill="#4B4949"/>
<rect x="90" y="180" width="60" height="30" fill="#4B4949"/>
<rect x="180" y="150" width="60" height="30" fill="#4B4949"/>
<rect x="180" y="180" width="60" height="30" fill="#4B4949"/>
<rect x="90" y="180" width="60" height="10" fill="black"/>
<rect x="180" y="180" width="60" height="10" fill="black"/>
<rect x="100" y="160" width="10" height="10" fill="#4B4949"/>
<rect x="130" y="150" width="10" height="60" fill="black"/>
<rect x="180" y="150" width="10" height="60" fill="black"/>
<rect x="130" y="130" width="10" height="10" fill="black"/>
<rect x="170" y="130" width="30" height="10" fill="#4B4949"/>
<rect x="80" y="220" width="10" height="10" fill="black"/>
<rect x="70" y="220" width="10" height="10" fill="#4B4949"/>
<rect x="90" y="220" width="10" height="10" fill="#4B4949"/>
<rect x="70" y="240" width="30" height="10" fill="#ABAAA8"/>
<rect x="120" y="240" width="30" height="10" fill="#ABAAA8"/>
<rect x="170" y="240" width="30" height="10" fill="#ABAAA8"/>
<rect x="70" y="230" width="30" height="10" fill="white"/>
<rect x="120" y="230" width="30" height="10" fill="white"/>
<rect x="170" y="230" width="30" height="10" fill="white"/>
<rect x="220" y="110" width="10" height="30" fill="black"/>
<rect x="240" y="120" width="10" height="20" fill="black"/>
<rect x="180" y="130" width="10" height="10" fill="black"/>
</svg>
