<svg width="320" height="320" viewBox="0 0 320 320" fill="none" xmlns="http://www.w3.org/2000/svg">
<rect x="90" y="150" width="60" height="30" fill="#FEB9D5"/>
<rect x="90" y="180" width="60" height="30" fill="#FEB9D5"/>
<rect x="180" y="150" width="60" height="30" fill="#FEB9D5"/>
<rect x="180" y="180" width="60" height="30" fill="#FEB9D5"/>
<rect x="90" y="200" width="50" height="10" fill="#3A085B"/>
<rect x="140" y="190" width="10" height="10" fill="#3A085B"/>
<rect x="100" y="180" width="40" height="10" fill="#3A085B"/>
<rect width="50" height="10" transform="matrix(-1 0 0 1 240 200)" fill="#3A085B"/>
<rect width="10" height="10" transform="matrix(-1 0 0 1 190 190)" fill="#3A085B"/>
<rect width="40" height="10" transform="matrix(-1 0 0 1 230 180)" fill="#3A085B"/>
<rect x="100" y="150" width="10" height="10" fill="#FF638D"/>
<rect x="210" y="150" width="10" height="10" fill="#FF638D"/>
<rect x="220" y="150" width="10" height="10" fill="#E9265C"/>
<rect x="100" y="160" width="10" height="10" fill="#FF638D"/>
<rect x="210" y="160" width="20" height="10" fill="#FF638D"/>
<rect x="230" y="160" width="10" height="10" fill="#E9265C"/>
<rect x="230" y="170" width="10" height="10" fill="#E9265C"/>
<rect x="90" y="190" width="10" height="10" fill="#FF638D"/>
<rect x="220" y="190" width="10" height="10" fill="#FF638D"/>
</svg>
