<svg width="320" height="320" viewBox="0 0 320 320" fill="none" xmlns="http://www.w3.org/2000/svg">
<rect width="60" height="20" transform="matrix(-1 0 0 1 150 190)" fill="#2BB26B"/>
<rect x="180" y="190" width="60" height="20" fill="#2BB26B"/>
<rect x="90" y="150" width="60" height="30" fill="#2BB26B"/>
<rect x="180" y="150" width="60" height="30" fill="#2BB26B"/>
<rect x="100" y="160" width="10" height="10" fill="#2BB26B"/>
<rect x="90" y="150" width="10" height="20" fill="#27A463"/>
<rect x="110" y="190" width="10" height="20" fill="#27A463"/>
<rect x="120" y="160" width="10" height="10" fill="#27A463"/>
<rect x="140" y="150" width="10" height="10" fill="#27A463"/>
<rect x="90" y="200" width="10" height="10" fill="#27A463"/>
<rect x="120" y="200" width="20" height="10" fill="#27A463"/>
<rect x="180" y="150" width="20" height="10" fill="#27A463"/>
<rect x="210" y="150" width="30" height="10" fill="#27A463"/>
<rect x="190" y="170" width="50" height="10" fill="#27A463"/>
<rect x="190" y="190" width="50" height="10" fill="#27A463"/>
<rect x="130" y="150" width="10" height="30" fill="#27A463"/>
<rect x="100" y="160" width="10" height="10" fill="#27A463"/>
</svg>
