<svg width="320" height="320" viewBox="0 0 320 320" fill="none" xmlns="http://www.w3.org/2000/svg">
<rect width="50" height="10" transform="matrix(-1 0 0 1 240 160)" fill="#A3BAED"/>
<rect width="60" height="10" transform="matrix(-1 0 0 1 240 150)" fill="#A3BAED"/>
<rect width="30" height="10" transform="matrix(-1 0 0 1 240 170)" fill="#A3BAED"/>
<rect width="10" height="10" transform="matrix(-1 0 0 1 240 180)" fill="#A3BAED"/>
<rect x="90" y="160" width="50" height="10" fill="#A3BAED"/>
<rect x="90" y="150" width="60" height="10" fill="#A3BAED"/>
<rect x="90" y="170" width="30" height="10" fill="#A3BAED"/>
<rect x="90" y="180" width="10" height="10" fill="#A3BAED"/>
<rect x="100" y="160" width="10" height="10" fill="#A3BAED"/>
<rect x="110" y="170" width="10" height="10" fill="#FFF0EE"/>
<rect x="120" y="160" width="20" height="10" fill="#FFF0EE"/>
<rect x="130" y="150" width="20" height="10" fill="#FFF0EE"/>
<rect width="10" height="10" transform="matrix(-1 0 0 1 220 170)" fill="#FFF0EE"/>
<rect width="20" height="10" transform="matrix(-1 0 0 1 210 160)" fill="#FFF0EE"/>
<rect width="20" height="10" transform="matrix(-1 0 0 1 200 150)" fill="#FFF0EE"/>
</svg>
