<svg width="320" height="320" viewBox="0 0 320 320" fill="none" xmlns="http://www.w3.org/2000/svg">
<rect x="180" y="180" width="60" height="30" fill="#A3BAED"/>
<rect x="180" y="150" width="60" height="30" fill="#A3BAED"/>
<rect x="180" y="200" width="30" height="10" fill="#7E5243"/>
<rect x="180" y="180" width="30" height="10" fill="#7E5243"/>
<rect x="190" y="190" width="20" height="10" fill="#7E5243"/>
<rect width="20" height="10" transform="matrix(-1 0 0 1 220 170)" fill="#FFF0EE"/>
<rect width="10" height="10" transform="matrix(-1 0 0 1 220 200)" fill="#FFF0EE"/>
<rect width="20" height="10" transform="matrix(-1 0 0 1 210 160)" fill="#FFF0EE"/>
<rect width="20" height="10" transform="matrix(-1 0 0 1 200 150)" fill="#FFF0EE"/>
<rect x="190" y="170" width="10" height="10" fill="#7E5243"/>
<rect x="180" y="160" width="10" height="10" fill="#7E5243"/>
<rect x="180" y="170" width="10" height="10" fill="#FFC110"/>
<rect x="180" y="190" width="10" height="10" fill="#FFC110"/>
<rect x="190" y="170" width="40" height="10" fill="#667AF9"/>
<rect x="180" y="180" width="10" height="10" fill="#667AF9"/>
<rect x="230" y="170" width="10" height="10" fill="#667AF9"/>
</svg>
