<svg width="320" height="320" viewBox="0 0 320 320" fill="none" xmlns="http://www.w3.org/2000/svg">
<rect width="60" height="20" transform="matrix(-1 0 0 1 150 190)" fill="#71BDE4"/>
<rect x="180" y="190" width="60" height="20" fill="#71BDE4"/>
<rect x="90" y="150" width="60" height="30" fill="#71BDE4"/>
<rect x="180" y="150" width="60" height="30" fill="#71BDE4"/>
<rect x="100" y="160" width="10" height="10" fill="#71BDE4"/>
<rect x="90" y="170" width="10" height="10" fill="#A3BAED"/>
<rect x="100" y="190" width="10" height="10" fill="#A3BAED"/>
<rect x="180" y="190" width="10" height="10" fill="#A3BAED"/>
<rect x="90" y="190" width="10" height="20" fill="#A3BAED"/>
<rect x="230" y="190" width="10" height="20" fill="#A3BAED"/>
<rect x="190" y="190" width="20" height="20" fill="#A3BAED"/>
<rect x="220" y="170" width="10" height="10" fill="#A3BAED"/>
<rect x="220" y="150" width="10" height="10" fill="#A3BAED"/>
<rect x="180" y="150" width="10" height="30" fill="#A3BAED"/>
<rect x="190" y="160" width="10" height="20" fill="#A3BAED"/>
<rect x="230" y="150" width="10" height="30" fill="#A3BAED"/>
<rect x="90" y="160" width="10" height="10" fill="#67B1E3"/>
<rect x="110" y="150" width="10" height="10" fill="#67B1E3"/>
<rect x="200" y="150" width="10" height="10" fill="#67B1E3"/>
<rect x="220" y="160" width="10" height="10" fill="#67B1E3"/>
<rect x="220" y="190" width="10" height="20" fill="#67B1E3"/>
<rect x="100" y="200" width="10" height="10" fill="#67B1E3"/>
<rect x="120" y="160" width="10" height="20" fill="#67B1E3"/>
</svg>
