<svg width="320" height="320" viewBox="0 0 320 320" fill="none" xmlns="http://www.w3.org/2000/svg">
<rect x="90" y="150" width="60" height="60" fill="#FFFDF2"/>
<rect x="180" y="150" width="60" height="60" fill="#FFFDF2"/>
<rect x="100" y="150" width="10" height="10" fill="#F3322C"/>
<rect x="230" y="150" width="10" height="10" fill="#F3322C"/>
<rect x="230" y="160" width="10" height="10" fill="#F3322C"/>
<rect x="90" y="180" width="10" height="10" fill="#F3322C"/>
<rect x="90" y="190" width="10" height="10" fill="#F3322C"/>
<rect x="100" y="200" width="10" height="10" fill="#F3322C"/>
<rect x="230" y="200" width="10" height="10" fill="#F3322C"/>
<rect x="190" y="160" width="40" height="10" fill="black" fill-opacity="0.15"/>
<rect x="100" y="160" width="40" height="10" fill="black" fill-opacity="0.15"/>
<rect x="180" y="170" width="10" height="10" fill="black" fill-opacity="0.15"/>
<rect x="90" y="170" width="10" height="10" fill="black" fill-opacity="0.15"/>
<rect x="230" y="170" width="10" height="10" fill="black" fill-opacity="0.15"/>
<rect x="140" y="170" width="10" height="10" fill="black" fill-opacity="0.15"/>
</svg>
