<svg width="320" height="320" viewBox="0 0 320 320" fill="none" xmlns="http://www.w3.org/2000/svg">
<rect x="90" y="150" width="60" height="30" fill="#A3BAED"/>
<rect x="90" y="180" width="60" height="30" fill="#5648ED"/>
<rect x="180" y="150" width="60" height="30" fill="#A3BAED"/>
<rect x="180" y="180" width="60" height="30" fill="#5648ED"/>
<rect x="90" y="180" width="60" height="10" fill="#5A423F"/>
<rect x="180" y="180" width="60" height="10" fill="#5A423F"/>
<rect x="100" y="160" width="10" height="10" fill="#A3BAED"/>
<rect x="90" y="150" width="60" height="30" fill="#FF638D"/>
<rect x="180" y="150" width="60" height="20" fill="#2B83F6"/>
<rect x="180" y="170" width="60" height="10" fill="#CC0595"/>
<rect x="210" y="190" width="30" height="10" fill="#CC0595"/>
<rect x="230" y="200" width="10" height="10" fill="#CC0595"/>
<rect x="180" y="200" width="50" height="10" fill="#AB36BE"/>
<rect x="180" y="190" width="30" height="10" fill="#AB36BE"/>
<rect x="90" y="190" width="60" height="10" fill="#FFC110"/>
<rect x="90" y="200" width="20" height="10" fill="#FFC110"/>
<rect x="110" y="200" width="40" height="10" fill="#70E890"/>
</svg>
