<svg width="320" height="320" viewBox="0 0 320 320" fill="none" xmlns="http://www.w3.org/2000/svg">
<rect x="180" y="150" width="60" height="30" fill="#2B83F6"/>
<rect x="90" y="150" width="60" height="30" fill="#2B83F6"/>
<rect x="90" y="170" width="60" height="40" fill="#2B83F6"/>
<rect x="180" y="170" width="60" height="40" fill="#2B83F6"/>
<rect x="190" y="160" width="40" height="10" fill="#254EFB"/>
<rect x="100" y="160" width="40" height="10" fill="#254EFB"/>
<rect x="180" y="170" width="10" height="10" fill="#254EFB"/>
<rect x="90" y="170" width="10" height="10" fill="#254EFB"/>
<rect x="230" y="170" width="10" height="10" fill="#254EFB"/>
<rect x="140" y="170" width="10" height="10" fill="#254EFB"/>
<rect x="100" y="150" width="10" height="10" fill="#2B83F6"/>
<rect x="90" y="180" width="10" height="10" fill="#4BEA69"/>
<rect x="90" y="160" width="10" height="10" fill="#4BEA69"/>
<rect x="180" y="160" width="10" height="10" fill="#4BEA69"/>
<rect x="230" y="160" width="10" height="10" fill="#4BEA69"/>
<rect x="90" y="190" width="10" height="20" fill="#4BEA69"/>
<rect x="190" y="170" width="40" height="10" fill="#4BEA69"/>
<rect x="180" y="180" width="50" height="30" fill="#4BEA69"/>
<rect x="220" y="150" width="20" height="10" fill="#4BEA69"/>
<rect x="100" y="170" width="10" height="10" fill="#4BEA69"/>
<rect x="100" y="179" width="20" height="21" fill="#4BEA69"/>
</svg>
